<svg width="16" height="16" viewBox="0 0 16 16" fill="none" xmlns="http://www.w3.org/2000/svg">
<path d="M14 1.33331H3.99999C3.64637 1.33331 3.30723 1.47379 3.05719 1.72384C2.80714 1.97389 2.66666 2.31302 2.66666 2.66665V4.66665H1.33333V5.99998H2.66666V7.33331H1.33333V8.66665H2.66666V9.99998H1.33333V11.3333H2.66666V13.3333C2.66666 13.6869 2.80714 14.0261 3.05719 14.2761C3.30723 14.5262 3.64637 14.6666 3.99999 14.6666H14C14.1768 14.6666 14.3464 14.5964 14.4714 14.4714C14.5964 14.3464 14.6667 14.1768 14.6667 14V1.99998C14.6667 1.82317 14.5964 1.6536 14.4714 1.52858C14.3464 1.40355 14.1768 1.33331 14 1.33331ZM8.66666 3.33265C9.76533 3.33265 10.6667 4.23331 10.6667 5.33265C10.6647 5.86255 10.4534 6.3702 10.0788 6.74496C9.70415 7.11972 9.19656 7.3312 8.66666 7.33331C7.56866 7.33331 6.66666 6.43131 6.66666 5.33265C6.66666 4.23331 7.56866 3.33265 8.66666 3.33265ZM12.6667 12H4.66666V11.5C4.66666 10.0206 6.46999 8.49998 8.66666 8.49998C10.8633 8.49998 12.6667 10.0206 12.6667 11.5V12Z" fill="#AAAAAA"/>
</svg>
