<svg width="14" height="14" viewBox="0 0 14 14" fill="none" xmlns="http://www.w3.org/2000/svg">
<path d="M7 0.333313C3.324 0.333313 0.333336 3.32398 0.333336 6.99998C0.333336 10.676 3.324 13.6666 7 13.6666C10.676 13.6666 13.6667 10.676 13.6667 6.99998C13.6667 3.32398 10.676 0.333313 7 0.333313ZM1.66667 6.99998C1.66667 6.40065 1.77067 5.82531 1.954 5.28731L3 6.33331L4.33334 7.66665V8.99998L5.66667 10.3333L6.33334 11V12.2873C3.70734 11.9573 1.66667 9.71465 1.66667 6.99998ZM11.22 10.2486C10.7847 9.89798 10.1247 9.66665 9.66667 9.66665V8.99998C9.66667 8.64636 9.52619 8.30722 9.27614 8.05717C9.0261 7.80712 8.68696 7.66665 8.33334 7.66665H5.66667V5.66665C6.02029 5.66665 6.35943 5.52617 6.60948 5.27612C6.85953 5.02607 7 4.68693 7 4.33331V3.66665H7.66667C8.02029 3.66665 8.35943 3.52617 8.60948 3.27612C8.85953 3.02607 9 2.68693 9 2.33331V2.05931C10.952 2.85198 12.3333 4.76665 12.3333 6.99998C12.3332 8.17644 11.9415 9.3194 11.22 10.2486Z" fill="#484A54"/>
</svg>
