<svg width="15" height="15" viewBox="0 0 15 15" fill="none" xmlns="http://www.w3.org/2000/svg">
<g clip-path="url(#clip0_169_44)">
<path fill-rule="evenodd" clip-rule="evenodd" d="M6.78725 0.0182119C4.44007 0.262265 2.38299 1.53954 1.13337 3.52883C-0.638863 6.35008 -0.304285 10.0958 1.93795 12.5362C3.18417 13.8925 4.72753 14.6992 6.58155 14.9632C6.93007 15.0129 8.08267 15.0121 8.44456 14.9619C10.2705 14.709 11.8126 13.9042 13.0567 12.5547C14.081 11.4437 14.7355 10.0263 14.9632 8.42644C15.0123 8.08112 15.0123 6.92244 14.9632 6.57711C14.7896 5.35729 14.4035 4.32028 13.7621 3.35109C13.4893 2.93889 13.2169 2.60633 12.8373 2.22223C11.6645 1.03534 10.2168 0.304887 8.54724 0.0575469C8.18735 0.00420987 7.14571 -0.0190389 6.78725 0.0182119ZM3.68419 6.22251C3.93849 6.29023 4.10757 6.38795 4.2949 6.57535C4.81986 7.10062 4.81968 7.90223 4.29443 8.42773C3.76921 8.95327 2.96803 8.95344 2.44304 8.4282C1.91577 7.90064 1.91562 7.10235 2.44269 6.575C2.7805 6.23701 3.24431 6.10533 3.68419 6.22251ZM7.82094 6.22251C8.07524 6.29023 8.24432 6.38795 8.43165 6.57535C8.95661 7.10062 8.95643 7.90223 8.43118 8.42773C7.90596 8.95327 7.10478 8.95344 6.57979 8.4282C6.05252 7.90064 6.05237 7.10235 6.57944 6.575C6.91725 6.23701 7.38106 6.10533 7.82094 6.22251ZM11.9577 6.22251C12.212 6.29023 12.3811 6.38795 12.5684 6.57535C13.0934 7.10062 13.0932 7.90223 12.5679 8.42773C12.0427 8.95327 11.2415 8.95344 10.7165 8.4282C10.1893 7.90064 10.1891 7.10235 10.7162 6.575C11.054 6.23701 11.5178 6.10533 11.9577 6.22251Z" fill="#C4C7CF"/>
</g>
<defs>
<clipPath id="clip0_169_44">
<rect width="15" height="15" fill="white"/>
</clipPath>
</defs>
</svg>
