<svg width="16" height="16" viewBox="0 0 16 16" fill="none" xmlns="http://www.w3.org/2000/svg">
<g clip-path="url(#clip0_15_149)">
<path d="M0.463451 6.33779C0.166391 5.53801 -0.0392649 4.71539 0.0292872 3.86665C0.0749886 3.34108 0.280645 2.88407 0.669107 2.49561C1.08042 2.08429 1.495 1.67298 1.90631 1.26167C2.45473 0.736101 3.14025 0.736101 3.66908 1.26167C4.01184 1.58158 4.33175 1.92434 4.67451 2.2671C4.99442 2.58701 5.31433 2.90692 5.65709 3.24968C6.22836 3.82095 6.22836 4.48362 5.65709 5.05815C5.24578 5.46946 4.85732 5.88077 4.42315 6.26924C4.3089 6.38349 4.3089 6.45204 4.3546 6.58915C4.62881 7.25182 5.01727 7.82308 5.45143 8.37477C6.34261 9.4716 7.35131 10.4346 8.53954 11.1887C8.7909 11.3486 9.08796 11.4629 9.33932 11.6228C9.47642 11.6914 9.56782 11.6685 9.68208 11.5543C10.0934 11.143 10.5047 10.7317 10.916 10.3203C11.4644 9.77192 12.15 9.77192 12.6788 10.3203C13.3415 10.983 14.0041 11.6457 14.6701 12.3116C15.2185 12.86 15.2185 13.5456 14.6701 14.1201C14.3044 14.5085 13.8931 14.8513 13.5504 15.2626C13.0248 15.8339 12.385 16.0395 11.6277 15.9938C10.5765 15.9253 9.59068 15.5597 8.63095 15.1027C6.50257 14.0744 4.67451 12.6315 3.14025 10.8035C2.02056 9.44875 1.08042 8.00915 0.463451 6.33779Z" fill="#AAAAAA"/>
<path d="M14.3208 3.15503L14.9312 3.76547L15.6755 4.50975C16.0868 4.92106 16.0868 5.587 15.6755 5.99831C15.2642 6.40962 14.5982 6.40962 14.1869 5.99831L13.4427 5.25403L12.8322 4.64033L12.2218 5.25077L11.4775 5.99505C11.0662 6.40636 10.4002 6.40636 9.98893 5.99505C9.57762 5.58373 9.57762 4.9178 9.98893 4.50649L10.7332 3.76221L11.3437 3.15177L9.98893 1.79704C9.57762 1.38573 9.57762 0.719797 9.98893 0.308485C10.4002 -0.102828 11.0662 -0.102828 11.4775 0.308485L12.8322 1.66647L14.1869 0.311749C14.5982 -0.0995638 15.2642 -0.0995638 15.6755 0.311749C16.0868 0.723062 16.0868 1.389 15.6755 1.80031L14.3208 3.15503Z" fill="#AAAAAA"/>
</g>
<defs>
<clipPath id="clip0_15_149">
<rect width="16" height="16" fill="white"/>
</clipPath>
</defs>
</svg>
