<svg width="16" height="16" viewBox="0 0 16 16" fill="none" xmlns="http://www.w3.org/2000/svg">
<g clip-path="url(#clip0_130_476)">
<path d="M0.262724 1.2955C0.288867 0.736256 0.736379 0.288745 1.29562 0.262602L6.88786 0.00101579C7.19268 -0.0137368 7.48974 0.101626 7.7056 0.317545L15.6823 8.29428C15.8857 8.49772 16 8.77357 16 9.0613C16 9.34903 15.8857 9.62493 15.6823 9.82838L9.8285 15.6821C9.61676 15.8939 9.33912 15.9998 9.06148 15.9998C8.78389 15.9998 8.50625 15.8938 8.2944 15.6821L0.317776 7.70548C0.101912 7.48961 -0.0130711 7.19272 0.00119209 6.88774L0.262724 1.2955ZM2.30611 4.12652C2.80884 4.62925 3.62397 4.62925 4.1267 4.12652C4.62942 3.6238 4.62942 2.80866 4.1267 2.30594C3.62397 1.80321 2.80884 1.80321 2.30611 2.30594C1.80339 2.80866 1.80333 3.62374 2.30611 4.12652Z" fill="#AAAAAA"/>
</g>
<defs>
<clipPath id="clip0_130_476">
<rect width="16" height="16" fill="white" transform="matrix(-1 0 0 1 16 0)"/>
</clipPath>
</defs>
</svg>
