<svg width="16" height="16" viewBox="0 0 16 16" fill="none" xmlns="http://www.w3.org/2000/svg">
<path d="M8.00001 1.33331C4.32401 1.33331 1.33334 4.32398 1.33334 7.99998C1.33334 11.676 4.32401 14.6666 8.00001 14.6666C11.676 14.6666 14.6667 11.676 14.6667 7.99998C14.6667 4.32398 11.676 1.33331 8.00001 1.33331ZM2.66668 7.99998C2.66668 7.40065 2.77068 6.82531 2.95401 6.28731L4.00001 7.33331L5.33334 8.66665V9.99998L6.66668 11.3333L7.33334 12V13.2873C4.70734 12.9573 2.66668 10.7146 2.66668 7.99998ZM12.22 11.2486C11.7847 10.898 11.1247 10.6666 10.6667 10.6666V9.99998C10.6667 9.64636 10.5262 9.30722 10.2762 9.05717C10.0261 8.80712 9.68696 8.66665 9.33334 8.66665H6.66668V6.66665C7.0203 6.66665 7.35944 6.52617 7.60949 6.27612C7.85953 6.02607 8.00001 5.68693 8.00001 5.33331V4.66665H8.66668C9.0203 4.66665 9.35944 4.52617 9.60948 4.27612C9.85953 4.02607 10 3.68693 10 3.33331V3.05931C11.952 3.85198 13.3333 5.76665 13.3333 7.99998C13.3332 9.17644 12.9415 10.3194 12.22 11.2486Z" fill="#AAAAAA"/>
</svg>
